<svg style="fill:white" xmlns="http://www.w3.org/2000/svg" xmlns:xlink="http://www.w3.org/1999/xlink" version="1.1" id="Your_Icon" x="0px" y="0px" width="100px" height="100px" viewBox="0 0 100 100" enable-background="new 0 0 100 100" xml:space="preserve">
<g>
	<g>
		<g>
			<g>
			</g>
		</g>
		<g>
		</g>
	</g>
</g>
<g>
	<path d="M72.405,27.63h-2.498l-1.015-3.902h-1.405l-2.263-2.263l-3.981-2.185l-0.39-0.624l-2.185-5.229l-1.873-0.624l-0.702-2.576   L51.02,4.918l-2.81,2.966l-2.107,1.873v1.873l-3.825,3.122v3.2l-4.449,5.776l-1.327,2.654l-1.795,1.015l-0.624,3.434l-6.4,5.151   h46.284L72.405,27.63z M44.385,16.625l3.278-5.62l3.161-3.2l0.429,4.059l-1.639,4.449l-0.468,4.137l-4.137,1.795l-2.263-1.405   L44.385,16.625z M51.254,28.567l-3.278,2.341l-3.044,3.278h-4.371l3.746-6.4l1.171-3.981l4.293-2.107l2.341,1.951l-1.288,1.717   L51.254,28.567z"/>
	<path d="M33.692,45.374l2.497,4.839l0.312,5.62l2.185,5.386l0.702,9.132l3.746,5.463l1.093,6.244l4.449,4.995l1.093,3.902   l2.576,4.215l2.185-2.341l4.137-2.576l1.249-5.463l1.873-3.512l0.859-5.619l1.171-1.639l1.561-3.668l1.951-13.268l2.81-7.727   l2.81-3.278l1.015-6.244H27.683L33.692,45.374z M47,77.764l-3.785-11.474l-3.512-9.21l5.737,2.341l0.898,9.366l4.488,2.225   l0.429,13.932L47,77.764z M49.459,48.496l1.795,10.771l1.171,8.234L47,63.637l-0.663-8.761l-4.059-3.649l-3.824-8.976   L49.459,48.496z"/>
	<rect x="21.354" y="37.265" width="62.464" height="1.283"/>
</g>
</svg>